# xmcd
#
# Track frame offsets: 
#        182
#        19015
#        34607
#        54477
#        76812
#        89002
#        102922
#        120707
#        133022
#        146015
#        165070
#        193447
#        205982
#        218480
#        237765
#        248940
#        266117
#        280567
#        299765
#        312277
#
# Disc length: 4380 seconds
#
# Revision: 0
# Processed by: cddbd v1.5PL3 Copyright (c) Steve Scherf et al.
# Submitted via: ExactAudioCopy v0.95a5
#
DISCID=24111a14
DTITLE=Various Artist - Classic Songs Of The Motown Era [CD2]
DYEAR=1997
DGENRE=R&B/Pop
TTITLE0=DeBarge - All This Love
TTITLE1=Rick James - Super Freak
TTITLE2=Stevie Wonder - Superstition
TTITLE3=Rockwell - Somebody's Watching Me
TTITLE4=Diana Ross - Last Time I Saw Him
TTITLE5=Stevie Wonder - Yester Me, Yester You, Yesterday
TTITLE6=Jackson 5 - I'll Be There
TTITLE7=The Temptations - My Girl
TTITLE8=Mary Wells - My Guy
TTITLE9=Marvin Gaye - Got To Give It Up
TTITLE10=Stevie Wonder - I Just Called To Say I Love You
TTITLE11=Smokey Robinson and The Miracles - Ooo Baby Baby
TTITLE12=Michael Jackson - Ben
TTITLE13=Commodores - Easy
TTITLE14=Marvin Gaye and Tammi Terrell - Ain't No Mountain High Enough
TTITLE15=Diana Ross - Love Hangover
TTITLE16=Stevie Wonder - Fingertips Pt. 2
TTITLE17=Stevie Wonder - I Wish
TTITLE18=Smokey Robinson and The Miracles - More Love
TTITLE19=Commodores - Three Times A Lady
EXTD=
EXTT0=
EXTT1=
EXTT2=
EXTT3=
EXTT4=
EXTT5=
EXTT6=
EXTT7=
EXTT8=
EXTT9=
EXTT10=
EXTT11=
EXTT12=
EXTT13=
EXTT14=
EXTT15=
EXTT16=
EXTT17=
EXTT18=
EXTT19=
PLAYORDER=
